<svg width="100%" min-height="0" viewBox="0 0 437 305" fill="none"
    xmlns="http://www.w3.org/2000/svg">
    <g id="speaker">
        <g id="Group 1">
            <path id="Vector_2" d="M188.12 104.464V55.5337L155.507 83.6237L188.12 104.464Z" fill="white" />
            <path id="Vector_3" d="M120.79 105.878H60.75C55.5808 105.878 51.4024 110.637 51.4024 116.509V193.586C51.4024 199.459 55.5808 204.217 60.75 204.217H129.688L188.111 259.245V148.908L120.79 105.878Z" fill="white" />
        </g>
        <g id="panda-button" opacity="0.16">
            <path id="Vector_4" d="M107.291 140.776L107.278 140.767L107.261 140.757L107.175 140.709L106.849 140.523C106.569 140.364 106.169 140.137 105.69 139.864C104.732 139.32 103.459 138.597 102.197 137.881C101.142 137.285 100.549 136.118 100.664 134.91L100.664 134.908C100.782 133.701 101.604 132.68 102.76 132.302C105.387 131.441 108.254 131.657 110.719 132.92C113.18 134.182 115.051 136.364 115.909 139L116.307 140.224C116.699 141.43 116.297 142.746 115.294 143.524C114.292 144.302 112.924 144.365 111.855 143.688L111.852 143.686C110.668 142.927 109.521 142.195 108.671 141.654C108.245 141.382 107.894 141.159 107.649 141.003L107.365 140.823L107.291 140.776Z" fill="white" stroke="white" stroke-width="3" />
            <path id="Vector_5" d="M85.5396 127.598V127.598C80.9115 124.654 75.4249 124.686 71.1096 126.696C66.7912 128.707 63.4126 132.834 63.4126 138.198V172.121C63.4126 177.485 66.7916 181.61 71.1101 183.621C75.4088 185.622 80.8693 185.66 85.4859 182.755L113.634 166.908L113.647 166.9L113.66 166.891L113.697 166.868C121.775 161.74 121.776 150.798 113.701 145.668L113.7 145.668L113.7 145.667L113.697 145.666L85.5475 127.603L85.5455 127.602L85.5396 127.598Z" fill="white" stroke="white" stroke-width="3" stroke-miterlimit="2.2041" />
            <path id="Vector_6" fill-rule="evenodd" clip-rule="evenodd" d="M71.3595 127.232C75.5096 125.299 80.7803 125.273 85.2221 128.097L85.2278 128.101L113.38 146.166C113.381 146.166 113.382 146.167 113.383 146.168C121.093 151.065 121.092 161.472 113.38 166.368L113.343 166.391L85.183 182.247C80.7495 185.042 75.4978 185.01 71.3599 183.084C67.2071 181.151 64.0045 177.211 64.0045 172.121V138.198C64.0045 133.108 67.2067 129.167 71.3595 127.232ZM72.7507 130.24C69.5243 131.743 67.3087 134.645 67.3087 138.198V172.121C67.3087 175.673 69.5239 178.574 72.7503 180.076C75.9796 181.579 80.0502 181.582 83.4544 179.421L83.4912 179.397L111.649 163.544C117.276 159.94 117.264 152.555 111.614 148.968L111.607 148.963L83.4533 130.898L83.4505 130.896C80.0474 128.733 75.9788 128.736 72.7507 130.24Z" fill="#2F2F2F" />
            <path id="Vector_7" fill-rule="evenodd" clip-rule="evenodd" d="M80.3931 147.378C83.4747 147.378 85.9649 149.885 85.9649 152.969C85.9649 158.435 81.5592 162.857 76.1123 162.848H64.852V147.378H80.3931ZM78.89 157.045C77.0963 157.291 75.4439 156.033 75.1981 154.233C74.9523 152.433 76.2063 150.775 78.0001 150.528C79.7939 150.281 81.4463 151.54 81.6921 153.34C81.9379 155.14 80.6838 156.798 78.89 157.045Z" fill="#2F2F2F" />
            <path id="Vector_8" fill-rule="evenodd" clip-rule="evenodd" d="M101.675 147.378C98.6015 147.378 96.1112 149.885 96.1112 152.969C96.1112 158.435 100.517 162.857 105.947 162.848H114.309C115.217 162.848 116.083 162.489 116.724 161.845C117.366 161.21 117.724 160.341 117.724 159.43V152.886C117.724 151.431 117.149 150.028 116.117 148.991C115.092 147.955 113.693 147.378 112.235 147.378H101.675ZM102.387 156.773C104.181 157.019 105.833 155.761 106.079 153.961C106.326 152.15 105.072 150.492 103.277 150.256C101.483 150.01 99.8311 151.268 99.5852 153.068C99.3394 154.868 100.593 156.526 102.387 156.773Z" fill="#2F2F2F" />
            <path id="Vector_9" fill-rule="evenodd" clip-rule="evenodd" d="M102.489 137.365C101.641 136.887 101.16 135.945 101.253 134.966C101.348 133.994 102.009 133.17 102.943 132.864C105.421 132.053 108.125 132.257 110.449 133.448C112.772 134.638 114.537 136.698 115.346 139.184L115.744 140.408C116.06 141.377 115.737 142.432 114.932 143.056C114.128 143.68 113.032 143.732 112.171 143.187C109.802 141.669 107.583 140.259 107.583 140.259C107.583 140.259 105.014 138.797 102.489 137.365Z" fill="#2F2F2F" />
            <path id="Vector_10" fill-rule="evenodd" clip-rule="evenodd" d="M82.3593 137.37C83.2097 136.884 83.699 135.945 83.5981 134.962C83.4972 133.98 82.8363 133.157 81.902 132.851C79.4238 132.039 76.7361 132.249 74.4151 133.431C72.0941 134.614 70.337 136.676 69.5305 139.154L69.1273 140.394C68.812 141.363 69.1346 142.418 69.9392 143.042C70.7437 143.666 71.8396 143.718 72.7002 143.173C75.0691 141.655 77.2886 140.245 77.2886 140.245C77.2886 140.245 79.8424 138.805 82.3593 137.37Z" fill="#2F2F2F" />
            <path id="Vector_11" fill-rule="evenodd" clip-rule="evenodd" d="M93.0247 162.208C93.0247 161.876 92.8929 161.56 92.664 161.327C92.4304 161.094 92.1151 160.963 91.7848 160.963C90.9767 160.963 89.9196 160.963 89.1119 160.963C88.7816 160.963 88.4663 161.094 88.2327 161.327C87.9987 161.56 87.8716 161.876 87.8716 162.208C87.8716 162.535 88.0038 162.855 88.2327 163.088C88.4663 163.321 88.7816 163.452 89.1119 163.452C89.9196 163.452 90.9767 163.452 91.7848 163.452C92.1151 163.452 92.4304 163.321 92.664 163.088C92.8929 162.855 93.0247 162.539 93.0247 162.208Z" fill="#2F2F2F" stroke="#2F2F2F" stroke-width="0.410115" stroke-miterlimit="1.5" stroke-linecap="round" stroke-linejoin="round" />
            <path id="Vector_12" fill-rule="evenodd" clip-rule="evenodd" d="M83.4917 166.106C83.4917 166.106 84.2683 167.012 85.4906 167.55C86.2356 167.878 87.131 168.072 88.1127 167.914C89.3545 167.712 90.2495 167.15 90.8765 166.414C91.5504 165.619 91.9095 164.598 91.9608 163.522C91.9999 162.687 91.3575 161.975 90.5253 161.936C89.6935 161.896 88.984 162.541 88.9445 163.38C88.9248 163.771 88.8262 164.159 88.578 164.448C88.3688 164.693 88.0496 164.851 87.6357 164.919C87.2884 164.974 86.9731 164.891 86.7088 164.772C86.1413 164.523 85.7704 164.111 85.7704 164.111C85.2225 163.482 84.2684 163.415 83.6375 163.965C83.0067 164.515 82.9437 165.476 83.4917 166.106Z" fill="#2F2F2F" />
            <path id="Vector_13" fill-rule="evenodd" clip-rule="evenodd" d="M95.1326 164.111C95.1326 164.111 94.766 164.523 94.1943 164.772C93.9303 164.887 93.6146 164.974 93.2677 164.919C92.8538 164.851 92.5342 164.693 92.3254 164.448C92.0769 164.155 91.9786 163.771 91.9589 163.38C91.9194 162.545 91.2095 161.896 90.3777 161.936C89.5459 161.975 88.9031 162.687 88.9426 163.522C88.9939 164.598 89.349 165.619 90.0269 166.414C90.65 167.15 91.5489 167.712 92.7907 167.914C93.7724 168.072 94.6674 167.878 95.4128 167.55C96.6388 167.012 97.4118 166.106 97.4118 166.106C97.9599 165.476 97.8967 164.515 97.2658 163.965C96.6348 163.415 95.6807 163.482 95.1326 164.111Z" fill="#2F2F2F" />
        </g>
        <g id="1">
            <path id="one" d="M253.534 103.803C268.026 127.018 270.137 178.373 253.534 205.809" stroke="white" stroke-width="13" stroke-linecap="round" />
        </g>
        <g id="2">
            <path id="two" d="M296.869 84.5269C319.381 123.923 320.085 185.83 296.869 226.211" stroke="white" stroke-width="13" stroke-linecap="round" />
        </g>
        <g id="3">
            <path id="three" d="M344.707 63C371.158 105.913 373.55 198.071 344.707 247.316" stroke="white" stroke-width="13" stroke-linecap="round" />
        </g>

        <path id="Vector" d="M422.979 286.183C421.24 286.183 419.511 285.705 417.959 284.712L11.3387 24.793C6.98268 22.0112 5.70206 16.2133 8.4783 11.8579C11.2639 7.49316 17.05 6.22869 21.3873 8.99179L428.008 268.911C432.373 271.693 433.654 277.491 430.877 281.846C429.073 284.656 426.063 286.183 422.979 286.183Z" fill="white" />
    </g>

    <defs>
        <style>
#one {
        animation: heartBeat1 2s linear infinite;
      }

      @keyframes heartBeat1 {
        0%,
        15% {
          opacity: 0;
        }

        25% {
          opacity: 1;
        }

        100% {
          opacity: 1;
        }
      }

      #two {
        animation: heartBeat2 2s linear infinite;
      }

      @keyframes heartBeat2 {
        0%,
        40% {
          opacity: 0;
        }

        50% {
          opacity: 1;
        }

        100% {
          opacity: 1;
        }
      }

      #three {
        animation: heartBeat3 2s linear infinite;
      }

      @keyframes heartBeat3 {
        0%,
        65% {
          opacity: 0;
        }

        75% {
          opacity: 1;
        }

        100% {
          opacity: 1;
        }
      }
        </style>
    </defs>
</svg>